<svg width="58" height="58" viewBox="0 0 58 58" fill="none" xmlns="http://www.w3.org/2000/svg">
<g clip-path="url(#clip0_2715_404)">
<path d="M17.722 26.5834L16.1108 31.5778H19.3331L17.722 26.5834Z" fill="white"/>
<path d="M48.8167 4.83337H23.0389V12.8889H29.4833V16.1112H8.5389C5.80001 16.1112 3.70557 18.2056 3.70557 20.9445V38.6667C3.70557 41.4056 5.80001 43.5 8.5389 43.5H10.15V51.7167L20.3 43.5H31.0945V32.2223H48.8167C51.5556 32.2223 53.65 30.1278 53.65 27.3889V9.66671C53.65 6.92782 51.5556 4.83337 48.8167 4.83337ZM21.1056 36.8945L20.3 34.3167H15.3056L14.3389 36.8945H10.4722L15.7889 22.5556H19.6556L24.9722 36.8945H21.1056ZM45.5945 24.1667V27.3889C43.5 27.3889 41.2445 26.7445 39.3111 25.7778C37.3778 26.7445 35.1222 27.2278 32.8667 27.3889L32.7056 24.1667C33.8333 24.1667 34.9611 24.0056 36.0889 23.6834C34.6389 22.2334 33.6722 20.4612 33.1889 18.5278H36.5722C37.0556 19.9778 38.0222 21.1056 39.15 22.0723C40.9222 20.6223 42.05 18.5278 42.2111 16.1112H32.5445V12.8889H37.3778V9.66671H40.6V12.8889H45.9167L46.0778 14.5C46.2389 17.8834 44.95 21.2667 42.5333 23.6834C43.6611 24.0056 44.6278 24.1667 45.5945 24.1667Z" fill="white"/>
</g>
<defs>
<clipPath id="clip0_2715_404">
<rect width="58" height="58" fill="white"/>
</clipPath>
</defs>
</svg>
