<svg width="24" height="24" viewBox="0 0 24 24" fill="none" xmlns="http://www.w3.org/2000/svg">
<path d="M18 5.24997V6.99297L21.279 8.30247C21.3753 8.34107 21.4625 8.39923 21.5352 8.47326C21.6079 8.5473 21.6644 8.6356 21.7012 8.73259C21.738 8.82958 21.7542 8.93314 21.749 9.03674C21.7437 9.14034 21.717 9.24172 21.6705 9.33447L20.9205 10.8345C20.847 10.9816 20.7272 11.1006 20.5795 11.1729C20.4318 11.2453 20.2644 11.2671 20.103 11.235L17.016 10.617C16.392 12.018 15.75 13.887 15.75 15C15.75 16.209 15.5625 17.3505 15.5625 18.1875C15.5625 18.6075 15.612 18.9375 15.6975 19.152C15.7274 19.2469 15.7774 19.3343 15.8442 19.4081C15.911 19.4819 15.993 19.5403 16.0845 19.5795C16.791 19.9335 16.5405 20.9985 15.75 21H14.25C14.0511 21 13.8604 20.921 13.7197 20.7803C13.5791 20.6396 13.5 20.4489 13.5 20.25V15.657C11.577 15.6225 9.86553 15.537 8.02653 14.9655C7.42353 14.7765 7.14453 14.8305 6.97803 14.9055C6.81303 14.982 6.67503 15.138 6.51303 15.4185C6.34953 15.699 6.19803 16.074 5.92953 16.4565C5.79603 16.644 5.46453 16.698 5.22453 16.848C5.18403 17.7915 5.06253 18.5985 5.06253 18.9375C5.06253 19.1355 5.08353 19.1865 5.12403 19.248C5.16453 19.3095 5.27553 19.425 5.58453 19.578C6.29103 19.9335 6.04053 20.9985 5.25003 21H3.75003C3.55112 21 3.36035 20.921 3.2197 20.7803C3.07905 20.6396 3.00003 20.4489 3.00003 20.25V14.25C3.00003 13.3815 3.20553 12.5085 3.67953 11.79C2.77803 11.58 2.59953 11.16 1.71903 10.281C0.994532 9.56997 2.10153 8.52597 2.78103 9.21897C4.10403 10.545 4.50003 10.5 6.00003 10.5C10.3335 10.5 13.86 8.98197 15.126 7.08447L16.626 4.83447C17.031 4.22547 18 4.50897 18 5.24997Z" fill="white"/>
</svg>
